<?xml version="1.0" encoding="UTF-8"?><svg id="a" xmlns="http://www.w3.org/2000/svg" viewBox="0 0 17.2766 17.2766"><path d="M16.09925,3.24057c0-.24694-.25207-.47179-.52859-.47179H1.81076c-.29151,0-.52859.23747-.52859.52859v10.75325c0,.29191.23708.52938.52859.52938.97-.00079,2.21061-.00079,3.56956-.00079,1.35934,0,2.83663,0,4.28039.00079h5.90995c.30611,0,.52859-.24615.52859-.58618V3.24057ZM14.1415,3.63741l-5.26184,3.01059c-.0572.03077-.12268.04497-.19447.03866-.00947.00079-.01933.00158-.02998.00158-.04536,0-.0998-.00947-.15621-.04181L3.23993,3.63741h10.90157ZM8.6702,8.49097c-.43549-.00394-.76843-.27613-.89821-.54358v-.00079c-.05049-.10414-.10098-.26745-.05365-.45206l.06588-.25641.7278.41577c.10808.05207.25167.0497.38264-.01341l.70965-.40709.05759.2714c.02959.13964.00552.2927-.06943.44102-.13728.27297-.47691.5491-.85994.5491l-.06233-.00394ZM6.52073,10.21007l.66074,3.50053H2.1508V4.0161l4.89656,2.80074-.08047.23668c-.06509.18146-.14832.41262-.12347.54437l.00394.02051-.00039.0213c-.00947.4852.17199.75502.30414.95146.03511.05207.06745.10177.09073.14359l.05878.10651-.74989,1.14791c-.00316.00868-.0142.03945-.0217.07179s-.0142.07416-.00828.14911ZM9.32147,13.7106h-1.26152l-.60985-3.16917.03984-.21617.62366-1.02483.13649.02525c.28402.05207.59723.05207.88125,0l.13609-.02525.63312,1.05166.03787.13964-.61695,3.21888ZM15.23063,13.7106h-5.03146l.66429-3.52183c.00986-.04339.00947-.08599-.00079-.12781-.01026-.04102-.0284-.071-.03392-.07889l-.7487-1.14081.05917-.10651c.02288-.04181.05523-.08994.08954-.14043.13373-.1996.31676-.47336.30414-.92227.02722-.22564-.05483-.44733-.11479-.60906l-.08954-.25641.14911-.08205c.36567-.1996,1.39485-.78815,4.4508-2.53644l.30216-.17278v9.69528Z" fill="#d84c37" stroke-width="0"/></svg>